<?xml version="1.0" encoding="UTF-8" standalone="no"?>
<!DOCTYPE svg PUBLIC "-//W3C//DTD SVG 1.1//EN" "http://www.w3.org/Graphics/SVG/1.1/DTD/svg11.dtd">
<svg xmlns="http://www.w3.org/2000/svg" version="1.1" viewBox="0.00 0.00 2172.00 724.00">
<g stroke-width="2.00" fill="none" stroke-linecap="butt">
<path stroke="none" vector-effect="non-scaling-stroke" d="
  M 734.72 135.31
  Q 735.24 135.28 735.71 134.97
  Q 741.61 131.12 746.64 126.89
  Q 748.87 125.02 749.53 122.97
  A 1.20 1.20 0.0 0 0 748.39 121.41
  L 741.89 121.41
  A 1.28 1.28 0.0 0 0 740.76 122.09
  L 734.25 134.59
  A 0.49 0.49 0.0 0 0 734.72 135.31"
/>
<path stroke="none" vector-effect="non-scaling-stroke" d="
  M 1401.23 193.45
  Q 1401.78 193.17 1402.34 192.28
  A 1.85 1.59 -61.9 0 1 1404.41 191.48
  Q 1406.99 192.52 1410.97 193.71
  C 1423.48 197.46 1438.72 191.22 1436.86 175.93
  C 1435.70 166.38 1425.80 161.93 1417.42 159.07
  Q 1413.12 157.60 1410.67 155.08
  C 1407.58 151.89 1407.40 145.78 1411.24 142.88
  C 1415.76 139.46 1422.16 140.63 1426.14 144.35
  Q 1430.27 148.21 1431.52 155.10
  A 0.67 0.67 0.0 0 0 1432.18 155.65
  L 1432.51 155.65
  A 0.33 0.32 -90.0 0 0 1432.83 155.32
  L 1432.83 140.50
  A 0.59 0.59 0.0 0 0 1431.82 140.08
  L 1430.14 141.75
  A 0.80 0.79 -57.2 0 1 1429.28 141.94
  Q 1427.34 141.21 1425.40 140.46
  Q 1414.83 136.39 1406.42 142.55
  C 1397.60 149.02 1398.85 160.21 1407.45 166.13
  C 1413.53 170.32 1430.96 172.74 1428.60 184.63
  Q 1427.45 190.40 1422.85 192.05
  C 1415.44 194.70 1407.20 190.36 1404.38 183.13
  Q 1403.92 181.95 1401.93 176.11
  A 0.74 0.73 -54.4 0 0 1400.50 176.35
  L 1400.50 193.01
  A 0.50 0.50 0.0 0 0 1401.23 193.45"
/>
<path stroke="none" vector-effect="non-scaling-stroke" d="
  M 739.6333 139.0083
  A 27.96 26.77 -87.0 0 0 711.4367 165.5290
  A 27.96 26.77 -87.0 0 0 736.7067 194.8517
  A 27.96 26.77 -87.0 0 0 764.9033 168.3310
  A 27.96 26.77 -87.0 0 0 739.6333 139.0083"
/>
<path stroke="none" vector-effect="non-scaling-stroke" d="
  M 1207.70 156.09
  L 1207.70 141.30
  A 0.89 0.89 0.0 0 0 1206.01 140.91
  C 1205.04 142.90 1204.39 143.57 1202.07 142.30
  Q 1190.89 136.19 1178.93 140.92
  Q 1171.01 144.05 1166.87 150.12
  C 1157.50 163.89 1160.09 184.37 1176.29 191.94
  Q 1190.45 198.57 1203.57 190.31
  C 1204.97 189.43 1205.37 189.46 1206.71 190.20
  A 0.92 0.92 0.0 0 0 1208.08 189.40
  L 1208.08 178.07
  A 0.52 0.51 51.4 0 0 1207.06 177.95
  C 1204.42 190.01 1190.00 198.42 1179.90 188.38
  C 1176.80 185.31 1175.44 181.58 1174.64 177.64
  Q 1172.08 165.04 1175.78 152.77
  C 1178.16 144.87 1184.32 139.16 1193.10 141.35
  Q 1202.28 143.64 1205.31 153.17
  Q 1205.70 154.40 1206.28 156.30
  A 0.73 0.73 0.0 0 0 1207.70 156.09"
/>
<path stroke="none" vector-effect="non-scaling-stroke" d="
  M 835.39 193.26
  A 0.89 0.88 -2.9 0 0 836.27 194.05
  L 859.38 193.98
  A 0.37 0.36 90.0 0 0 859.74 193.61
  L 859.74 193.21
  A 0.74 0.74 0.0 0 0 859.08 192.47
  C 855.53 192.08 852.82 192.14 852.69 187.64
  Q 852.45 179.32 852.76 170.74
  A 0.63 0.63 0.0 0 1 853.44 170.14
  Q 860.41 170.68 867.21 169.14
  C 875.51 167.26 880.22 159.96 878.49 151.69
  C 876.67 143.05 868.75 139.59 860.45 139.63
  Q 846.27 139.71 836.17 139.68
  A 0.83 0.83 0.0 0 0 835.33 140.52
  L 835.33 140.56
  A 0.88 0.87 -1.0 0 0 836.23 141.42
  Q 838.77 141.38 840.47 142.28
  A 2.69 2.68 -76.6 0 1 841.89 144.60
  Q 842.31 168.73 842.15 188.39
  Q 842.11 192.57 836.22 192.37
  A 0.81 0.81 0.0 0 0 835.38 193.22
  L 835.39 193.26"
/>
<path stroke="none" vector-effect="non-scaling-stroke" d="
  M 971.29 139.68
  Q 948.71 139.72 948.60 139.75
  A 0.34 0.34 0.0 0 0 948.33 140.08
  L 948.26 155.76
  A 0.70 0.70 0.0 0 0 948.99 156.47
  L 949.04 156.47
  A 1.03 1.01 0.3 0 0 949.96 155.57
  Q 950.45 151.26 952.09 148.33
  Q 956.26 140.89 965.57 141.90
  A 0.50 0.49 3.3 0 1 966.01 142.39
  Q 966.17 169.84 966.15 187.73
  C 966.15 191.90 963.11 192.54 959.76 192.46
  A 0.61 0.61 0.0 0 0 959.13 193.07
  L 959.13 193.36
  A 0.73 0.73 0.0 0 0 959.88 194.09
  Q 965.44 193.97 971.39 194.07
  Q 977.34 193.95 982.90 194.05
  A 0.73 0.73 0.0 0 0 983.65 193.31
  L 983.65 193.02
  A 0.61 0.61 0.0 0 0 983.02 192.42
  C 979.67 192.51 976.63 191.88 976.61 187.71
  Q 976.53 169.82 976.59 142.37
  A 0.50 0.49 -3.5 0 1 977.03 141.88
  Q 986.33 140.83 990.53 148.26
  Q 992.18 151.18 992.69 155.49
  A 1.03 1.01 -0.5 0 0 993.61 156.39
  L 993.66 156.39
  A 0.70 0.70 0.0 0 0 994.39 155.68
  L 994.26 140.00
  A 0.34 0.34 0.0 0 0 993.99 139.67
  Q 993.87 139.64 971.29 139.68"
/>
<path stroke="none" vector-effect="non-scaling-stroke" d="
  M 1331.45 193.27
  A 0.78 0.77 4.5 0 0 1330.77 192.48
  Q 1326.04 191.90 1325.01 189.23
  Q 1315.99 165.76 1306.80 142.21
  C 1306.11 140.44 1305.86 139.03 1303.78 139.57
  A 1.53 1.52 3.0 0 0 1302.74 140.50
  Q 1296.05 158.08 1285.98 184.95
  C 1284.53 188.80 1282.77 192.29 1278.35 192.38
  A 0.87 0.87 0.0 0 0 1277.50 193.23
  L 1277.50 193.26
  A 0.79 0.79 0.0 0 0 1278.28 194.07
  L 1293.48 194.10
  A 0.82 0.82 0.0 0 0 1294.30 193.32
  L 1294.31 193.23
  A 0.82 0.82 0.0 0 0 1293.53 192.38
  C 1289.39 192.15 1286.65 191.17 1288.24 186.27
  Q 1290.30 179.97 1291.74 176.35
  A 1.12 1.12 0.0 0 1 1292.78 175.64
  L 1308.24 175.64
  A 1.05 1.04 80.0 0 1 1309.22 176.33
  L 1313.93 189.11
  A 2.04 2.03 -20.6 0 1 1312.75 191.71
  Q 1310.85 192.46 1308.98 192.38
  A 0.82 0.82 0.0 0 0 1308.13 193.22
  L 1308.13 193.30
  A 0.86 0.86 0.0 0 0 1309.00 194.12
  L 1330.74 193.98
  A 0.72 0.72 0.0 0 0 1331.45 193.30
  L 1331.45 193.27"
/>
<path stroke="none" vector-effect="non-scaling-stroke" d="
  M 1072.80 166.91
  Q 1072.82 186.75 1072.85 187.54
  C 1073.03 191.99 1069.86 192.25 1066.33 192.33
  A 0.69 0.68 89.1 0 0 1065.67 193.02
  L 1065.67 193.31
  A 0.79 0.79 0.0 0 0 1066.47 194.10
  Q 1072.00 194.04 1077.95 194.08
  Q 1083.90 194.03 1089.43 194.08
  A 0.79 0.79 0.0 0 0 1090.23 193.29
  L 1090.23 193.00
  A 0.69 0.68 -89.3 0 0 1089.57 192.31
  C 1086.04 192.23 1082.87 191.98 1083.04 187.53
  Q 1083.07 186.74 1083.05 166.90
  Q 1083.03 147.06 1083.00 146.28
  C 1082.82 141.82 1085.99 141.56 1089.52 141.48
  A 0.69 0.68 89.1 0 0 1090.18 140.79
  L 1090.18 140.50
  A 0.79 0.79 0.0 0 0 1089.38 139.71
  Q 1083.85 139.77 1077.90 139.73
  Q 1071.95 139.78 1066.42 139.73
  A 0.79 0.79 0.0 0 0 1065.62 140.53
  L 1065.62 140.82
  A 0.69 0.68 -89.3 0 0 1066.28 141.51
  C 1069.81 141.58 1072.98 141.83 1072.81 146.28
  Q 1072.78 147.07 1072.80 166.91"
/>
<path stroke="none" vector-effect="non-scaling-stroke" d="
  M 626.22 161.72
  A 0.57 0.57 0.0 0 0 625.65 161.15
  L 142.07 161.15
  A 0.57 0.57 0.0 0 0 141.50 161.72
  L 141.50 168.12
  A 0.57 0.57 0.0 0 0 142.07 168.69
  L 625.65 168.69
  A 0.57 0.57 0.0 0 0 626.22 168.12
  L 626.22 161.72"
/>
<path stroke="none" vector-effect="non-scaling-stroke" d="
  M 2029.74 161.91
  A 0.74 0.74 0.0 0 0 2029.00 161.17
  L 1531.66 161.17
  A 0.74 0.74 0.0 0 0 1530.92 161.91
  L 1530.92 167.95
  A 0.74 0.74 0.0 0 0 1531.66 168.69
  L 2029.00 168.69
  A 0.74 0.74 0.0 0 0 2029.74 167.95
  L 2029.74 161.91"
/>
<path stroke="none" vector-effect="non-scaling-stroke" d="
  M 413.59 348.63
  A 0.73 0.73 0.0 0 0 414.32 347.90
  L 414.32 261.28
  A 0.64 0.64 0.0 0 0 413.79 260.65
  Q 411.64 260.25 409.76 260.53
  A 1.22 1.19 5.2 0 0 408.81 261.30
  C 407.91 263.72 406.92 266.61 405.63 268.33
  C 399.87 276.06 389.67 275.98 381.43 272.80
  Q 370.62 268.63 365.87 266.89
  C 329.03 253.35 288.42 255.54 252.74 270.69
  C 225.66 282.19 201.32 299.91 184.66 324.44
  Q 157.69 364.15 155.85 411.73
  C 154.11 457.00 172.51 504.04 207.97 532.95
  Q 222.31 544.64 237.58 551.39
  Q 255.95 559.52 271.17 562.56
  Q 290.52 566.43 313.50 566.18
  Q 331.51 565.98 353.20 559.94
  C 362.29 557.41 372.22 552.62 382.01 548.76
  Q 388.69 546.12 393.03 546.01
  C 402.73 545.75 408.40 552.71 410.17 561.68
  A 0.73 0.73 0.0 0 0 410.79 562.26
  Q 412.70 562.52 414.48 562.25
  A 0.68 0.67 -4.5 0 0 415.05 561.59
  L 415.05 477.61
  A 1.03 1.02 -0.0 0 0 414.02 476.59
  L 412.35 476.59
  A 1.34 1.33 4.5 0 0 411.03 477.71
  C 406.43 506.26 390.56 533.62 365.32 548.39
  C 354.17 554.91 338.70 559.61 325.95 560.88
  C 296.58 563.80 269.91 553.89 249.40 533.02
  C 230.50 513.78 219.81 488.49 214.52 461.97
  C 209.85 438.52 208.99 414.12 210.90 390.94
  Q 213.26 362.35 222.85 336.02
  C 227.79 322.44 234.70 309.11 243.38 298.64
  Q 254.18 285.65 265.64 278.69
  C 289.86 264.01 320.69 261.56 347.59 270.04
  C 382.91 281.18 404.09 311.69 409.28 347.84
  A 0.93 0.92 85.6 0 0 410.19 348.63
  L 413.59 348.63"
/>
<path stroke="none" vector-effect="non-scaling-stroke" d="
  M 1041.94 391.93
  Q 1035.34 395.25 1023.49 401.98
  Q 1002.58 413.86 986.28 430.27
  Q 974.32 442.31 967.36 456.85
  Q 955.87 480.87 962.43 507.11
  C 968.65 531.99 986.61 550.25 1011.30 558.37
  Q 1019.90 561.20 1024.22 562.00
  Q 1059.20 568.47 1092.19 556.17
  Q 1109.27 549.80 1123.08 540.10
  Q 1135.73 531.22 1146.22 521.90
  A 0.55 0.54 49.1 0 1 1146.99 521.96
  Q 1151.67 527.48 1160.94 537.60
  Q 1167.24 544.48 1174.21 550.08
  Q 1183.06 557.19 1194.08 560.79
  C 1218.54 568.77 1244.01 562.10 1261.67 544.16
  Q 1267.07 538.68 1273.97 529.16
  A 0.90 0.89 -49.7 0 0 1273.88 527.99
  L 1271.30 525.41
  A 0.92 0.92 0.0 0 0 1269.97 525.44
  Q 1264.49 531.40 1257.59 535.18
  C 1246.42 541.30 1233.28 539.17 1222.26 532.64
  Q 1213.64 527.53 1204.67 518.14
  Q 1192.82 505.74 1177.44 488.12
  A 0.77 0.77 0.0 0 1 1177.41 487.14
  Q 1191.07 469.42 1201.81 448.09
  C 1205.75 440.26 1211.75 425.41 1217.05 414.24
  Q 1221.57 404.72 1222.68 402.70
  Q 1232.24 385.43 1251.25 380.78
  Q 1256.38 379.53 1266.87 378.92
  A 0.61 0.61 0.0 0 0 1267.45 378.31
  L 1267.45 374.57
  A 0.54 0.53 -0.0 0 0 1266.91 374.04
  L 1176.00 374.04
  A 1.13 1.13 0.0 0 0 1174.87 375.17
  L 1174.87 378.09
  A 1.09 1.09 0.0 0 0 1175.98 379.18
  C 1185.55 379.03 1198.08 380.70 1202.90 390.35
  C 1210.87 406.29 1204.07 423.71 1197.72 438.57
  C 1195.97 442.67 1193.55 446.73 1191.44 451.12
  C 1186.32 461.72 1179.93 470.99 1172.25 480.97
  A 0.38 0.38 0.0 0 1 1171.66 480.99
  C 1163.09 471.43 1151.14 457.32 1132.89 435.75
  Q 1122.18 423.08 1092.29 385.59
  Q 1091.01 383.99 1087.67 379.46
  A 0.44 0.44 0.0 0 1 1087.85 378.79
  Q 1097.07 374.70 1107.95 369.21
  Q 1121.69 362.28 1132.95 351.74
  C 1146.83 338.76 1153.31 321.54 1149.87 302.71
  C 1147.63 290.44 1139.93 278.85 1129.21 271.96
  C 1107.51 258.01 1080.19 257.29 1057.19 267.70
  C 1038.22 276.30 1023.69 292.54 1019.03 312.75
  Q 1016.42 324.04 1016.78 331.02
  Q 1017.65 348.33 1025.78 364.75
  C 1030.81 374.92 1036.04 382.22 1042.12 391.24
  A 0.48 0.47 59.8 0 1 1041.94 391.93"
/>
<path stroke="none" vector-effect="non-scaling-stroke" d="
  M 1394.34 555.56
  L 1394.34 558.71
  A 0.72 0.72 0.0 0 0 1395.06 559.43
  L 1617.64 559.43
  A 0.80 0.80 0.0 0 0 1618.44 558.63
  L 1618.44 477.07
  A 0.50 0.50 0.0 0 0 1617.94 476.57
  L 1615.68 476.57
  A 0.78 0.78 0.0 0 0 1614.91 477.22
  C 1612.32 492.84 1608.42 508.03 1599.95 521.46
  C 1591.74 534.48 1581.22 543.83 1567.12 547.86
  Q 1551.30 552.38 1534.25 552.53
  C 1516.42 552.69 1502.28 553.25 1487.80 550.44
  Q 1475.74 548.10 1472.38 536.66
  Q 1470.32 529.68 1470.31 524.99
  Q 1470.24 480.20 1470.31 408.60
  A 0.42 0.42 0.0 0 1 1470.73 408.18
  Q 1485.73 408.18 1494.39 408.10
  C 1500.38 408.05 1507.02 408.55 1511.81 409.51
  C 1538.69 414.92 1548.31 435.93 1549.85 461.32
  A 1.29 1.29 0.0 0 0 1551.14 462.54
  L 1552.88 462.54
  A 1.26 1.25 90.0 0 0 1554.13 461.28
  L 1554.13 349.17
  A 1.10 1.09 90.0 0 0 1553.04 348.07
  L 1551.08 348.07
  A 1.25 1.24 -87.8 0 0 1549.84 349.22
  C 1547.96 372.80 1539.49 393.46 1514.64 399.86
  Q 1505.94 402.09 1499.71 402.19
  Q 1483.34 402.44 1470.88 402.11
  A 0.61 0.61 0.0 0 1 1470.29 401.50
  Q 1470.21 322.68 1470.34 287.27
  C 1470.40 272.13 1481.36 271.03 1493.25 271.06
  Q 1512.10 271.12 1529.24 271.31
  Q 1544.39 271.48 1557.62 275.90
  Q 1575.81 281.97 1586.85 298.20
  C 1594.18 308.98 1596.94 322.49 1598.81 335.24
  A 0.93 0.92 86.0 0 0 1599.72 336.04
  L 1602.82 336.04
  A 0.72 0.72 0.0 0 0 1603.54 335.32
  L 1603.54 264.37
  A 0.72 0.72 0.0 0 0 1602.82 263.65
  L 1395.28 263.65
  A 0.89 0.89 0.0 0 0 1394.39 264.54
  L 1394.39 267.66
  A 0.87 0.87 0.0 0 0 1395.27 268.53
  C 1405.28 268.38 1418.88 268.97 1423.02 280.38
  Q 1425.16 286.26 1425.17 295.00
  Q 1425.32 412.55 1425.21 529.75
  C 1425.20 539.93 1422.60 549.72 1411.64 552.86
  Q 1403.20 555.27 1395.03 554.90
  A 0.66 0.66 0.0 0 0 1394.34 555.56"
/>
<path stroke="none" vector-effect="non-scaling-stroke" d="
  M 1727.99 412.80
  L 1727.99 367.37
  A 1.31 1.31 0.0 0 0 1727.04 366.11
  C 1723.98 365.24 1722.03 364.98 1718.58 366.03
  Q 1702.14 371.03 1678.49 376.73
  Q 1672.55 378.16 1669.08 378.36
  A 1.23 1.22 88.3 0 0 1667.93 379.59
  L 1667.93 380.87
  A 1.17 1.17 0.0 0 0 1669.11 382.04
  C 1682.61 381.88 1687.82 389.84 1687.83 402.26
  Q 1687.86 477.54 1687.80 531.86
  C 1687.79 540.39 1686.25 548.34 1678.07 552.58
  Q 1673.23 555.10 1661.05 554.98
  A 0.72 0.72 0.0 0 0 1660.32 555.70
  L 1660.32 558.70
  A 0.72 0.72 0.0 0 0 1661.04 559.42
  L 1755.79 559.42
  A 0.80 0.79 -90.0 0 0 1756.58 558.62
  L 1756.58 555.61
  A 0.77 0.77 0.0 0 0 1755.82 554.84
  Q 1749.46 554.74 1744.30 553.91
  C 1736.76 552.70 1731.38 549.93 1729.32 542.18
  Q 1727.99 537.20 1728.01 532.49
  Q 1728.19 480.40 1728.02 455.45
  Q 1727.91 438.36 1729.43 431.65
  Q 1733.39 414.09 1745.35 400.38
  Q 1749.29 395.87 1757.34 391.92
  C 1764.99 388.17 1776.19 389.14 1777.74 398.77
  Q 1778.58 403.96 1778.82 404.49
  C 1784.43 416.89 1800.69 418.30 1809.86 409.29
  Q 1815.69 403.55 1816.51 396.33
  C 1819.14 373.09 1799.33 362.12 1778.88 366.63
  Q 1767.91 369.05 1757.39 376.83
  Q 1737.86 391.27 1728.41 412.89
  A 0.22 0.22 0.0 0 1 1727.99 412.80"
/>
<path stroke="none" vector-effect="non-scaling-stroke" d="
  M 571.44 534.38
  Q 572.27 539.33 573.97 544.28
  C 580.52 563.35 603.45 566.33 620.24 562.22
  Q 637.20 558.08 648.50 546.61
  A 0.88 0.87 -45.5 0 0 648.50 545.37
  L 646.02 542.89
  A 0.81 0.81 0.0 0 0 644.90 542.86
  C 638.44 548.68 629.39 552.70 621.07 549.41
  C 614.92 546.98 611.22 538.23 611.20 532.27
  Q 611.07 489.13 611.20 421.01
  C 611.22 411.70 610.60 402.26 606.49 394.30
  C 599.37 380.49 585.33 371.93 569.63 368.32
  Q 535.87 360.57 505.40 373.90
  C 490.88 380.26 469.15 396.03 471.67 414.52
  C 473.14 425.33 482.09 431.78 492.58 432.05
  Q 499.75 432.24 505.39 427.94
  Q 516.09 419.78 512.22 406.41
  C 510.57 400.71 506.84 398.42 502.39 395.26
  A 2.24 2.11 -88.3 0 1 501.76 394.55
  C 499.12 389.75 502.19 384.69 505.96 381.43
  C 514.76 373.83 527.33 370.98 538.77 372.20
  C 555.16 373.95 565.45 384.21 569.09 399.55
  C 572.06 412.14 571.54 424.54 571.29 437.93
  A 1.96 1.95 72.6 0 1 570.49 439.47
  C 562.26 445.44 554.03 449.32 543.22 453.35
  Q 515.16 463.82 510.24 465.79
  C 486.68 475.24 462.16 490.78 460.55 518.99
  C 459.87 530.96 464.00 541.82 472.37 550.26
  C 479.30 557.25 491.26 561.98 500.86 563.38
  C 520.56 566.24 540.66 561.87 556.32 549.37
  Q 565.08 542.38 571.11 534.30
  A 0.18 0.18 0.0 0 1 571.44 534.38"
/>
<path stroke="none" vector-effect="non-scaling-stroke" d="
  M 750.96 413.26
  A 0.13 0.13 0.0 0 1 750.84 413.13
  L 750.84 367.24
  A 0.92 0.91 -79.9 0 0 750.24 366.38
  Q 745.64 364.70 741.06 366.08
  Q 716.45 373.51 690.74 378.29
  A 0.91 0.90 -83.7 0 0 690.08 378.82
  Q 689.48 380.17 690.02 381.19
  A 1.03 1.03 0.0 0 0 690.93 381.74
  Q 703.38 381.78 707.39 391.12
  Q 708.97 394.80 708.97 407.33
  Q 708.93 530.33 708.94 531.75
  Q 708.99 537.01 707.76 542.54
  C 705.29 553.64 692.32 555.34 683.04 554.88
  A 1.08 1.08 0.0 0 0 681.91 555.96
  L 681.91 558.51
  A 0.96 0.95 90.0 0 0 682.86 559.47
  L 780.13 559.47
  A 0.79 0.79 0.0 0 0 780.92 558.68
  L 780.92 555.61
  A 0.73 0.73 0.0 0 0 780.17 554.88
  C 773.29 555.03 763.28 554.25 757.42 550.19
  C 751.96 546.41 750.98 535.87 751.07 530.00
  Q 751.26 516.68 751.09 454.23
  Q 751.04 437.53 752.64 430.39
  C 756.00 415.39 764.12 400.89 777.58 392.90
  C 784.21 388.96 795.04 388.00 799.59 395.55
  Q 800.37 396.85 800.74 400.62
  Q 801.50 408.61 809.34 412.71
  C 820.90 418.76 834.12 413.04 839.08 401.52
  Q 842.75 393.00 839.40 383.31
  C 836.29 374.30 829.63 369.03 820.41 366.68
  C 804.69 362.68 787.47 370.07 775.76 380.04
  Q 763.73 390.29 754.98 405.21
  Q 752.71 409.07 751.60 412.83
  Q 751.46 413.29 750.96 413.26"
/>
<path stroke="none" vector-effect="non-scaling-stroke" d="
  M 1954.19 534.20
  Q 1955.28 544.52 1960.09 550.96
  C 1967.51 560.92 1980.82 564.82 1993.25 563.95
  Q 2016.13 562.35 2031.43 546.70
  A 0.84 0.84 0.0 0 0 2031.42 545.51
  L 2028.92 543.00
  A 0.72 0.71 -44.4 0 0 2027.93 542.99
  C 2022.78 547.95 2015.85 551.65 2008.55 550.43
  Q 2002.25 549.37 1999.56 544.70
  Q 1995.98 538.50 1995.98 530.25
  Q 1996.04 446.74 1996.10 424.00
  C 1996.13 412.84 1994.61 402.86 1989.11 393.79
  Q 1985.25 387.43 1981.85 384.18
  C 1973.75 376.47 1964.70 371.46 1953.41 368.64
  C 1922.33 360.88 1884.72 367.33 1862.14 391.64
  C 1855.24 399.06 1851.11 410.18 1855.32 419.84
  C 1860.47 431.65 1874.96 435.14 1885.64 429.53
  C 1898.43 422.81 1899.19 404.70 1887.40 397.03
  Q 1886.48 396.44 1885.45 395.76
  C 1880.16 392.25 1884.79 383.86 1888.07 381.38
  Q 1904.58 368.90 1925.62 372.79
  C 1945.93 376.55 1952.81 395.51 1953.50 413.76
  Q 1953.90 424.53 1953.51 438.33
  A 1.03 1.03 0.0 0 1 1953.10 439.13
  Q 1945.08 445.00 1935.62 449.11
  Q 1930.30 451.42 1906.32 460.21
  C 1887.96 466.93 1871.60 473.88 1857.43 486.45
  C 1840.05 501.88 1835.48 529.02 1851.06 547.37
  Q 1858.63 556.27 1872.62 560.98
  C 1892.32 567.60 1915.02 564.10 1932.45 553.22
  Q 1945.17 545.28 1953.56 534.03
  A 0.35 0.35 0.0 0 1 1954.19 534.20"
/>
<path stroke="none" vector-effect="non-scaling-stroke" d="
  M 723.60 166.89
  C 723.59 176.30 724.82 193.00 738.20 193.02
  C 751.57 193.04 752.84 176.34 752.85 166.93
  C 752.86 157.52 751.63 140.81 738.26 140.80
  C 724.89 140.78 723.61 157.48 723.60 166.89"
/>
<path stroke="none" vector-effect="non-scaling-stroke" d="
  M 852.86 142.69
  L 852.74 167.15
  A 1.06 1.06 0.0 0 0 853.79 168.22
  L 857.55 168.24
  A 10.50 10.04 -89.7 0 0 867.65 157.79
  L 867.67 152.21
  A 10.50 10.04 -89.7 0 0 857.69 141.66
  L 853.93 141.64
  A 1.06 1.06 0.0 0 0 852.86 142.69"
/>
<path stroke="none" vector-effect="non-scaling-stroke" d="
  M 1292.82 172.77
  A 0.52 0.52 0.0 0 0 1293.31 173.47
  L 1307.12 173.40
  A 0.52 0.52 0.0 0 0 1307.60 172.70
  L 1300.60 154.31
  A 0.52 0.52 0.0 0 0 1299.63 154.32
  L 1292.82 172.77"
/>
<path stroke="none" vector-effect="non-scaling-stroke" d="
  M 1083.18 373.03
  Q 1095.27 368.66 1105.01 359.49
  Q 1121.34 344.15 1123.12 321.06
  C 1124.28 306.09 1120.86 287.65 1110.03 277.24
  Q 1096.55 264.30 1077.69 268.66
  Q 1059.33 272.90 1052.52 291.47
  Q 1048.94 301.23 1050.16 310.99
  C 1051.53 321.95 1055.13 331.36 1060.67 341.21
  Q 1069.80 357.43 1082.64 372.89
  A 0.49 0.48 -30.4 0 0 1083.18 373.03"
/>
<path stroke="none" vector-effect="non-scaling-stroke" d="
  M 1140.98 515.08
  Q 1088.23 450.40 1064.49 420.51
  C 1058.19 412.58 1052.85 405.52 1046.93 398.17
  A 0.63 0.63 0.0 0 0 1046.19 397.99
  C 1010.39 413.13 993.95 451.97 1005.00 488.74
  C 1010.51 507.11 1023.07 524.02 1040.12 533.29
  Q 1048.92 538.07 1055.64 539.87
  Q 1083.93 547.46 1111.33 536.07
  Q 1126.70 529.68 1140.93 515.87
  A 0.58 0.58 0.0 0 0 1140.98 515.08"
/>
<path stroke="none" vector-effect="non-scaling-stroke" d="
  M 570.90 448.13
  Q 570.46 448.72 559.13 453.38
  Q 550.58 456.89 535.52 464.45
  C 521.63 471.42 510.27 481.11 504.57 495.23
  C 499.02 509.00 501.20 526.14 511.80 537.12
  C 521.52 547.20 537.85 549.21 550.65 543.13
  Q 563.67 536.95 569.70 524.18
  Q 571.73 519.89 571.74 516.27
  Q 571.84 484.17 571.78 452.01
  Q 571.78 448.24 571.68 448.12
  A 0.49 0.49 0.0 0 0 570.90 448.13"
/>
<path stroke="none" vector-effect="non-scaling-stroke" d="
  M 1953.67 448.61
  A 0.44 0.43 77.8 0 0 1953.06 448.21
  Q 1942.68 452.97 1930.03 458.16
  Q 1925.04 460.21 1919.24 463.26
  C 1909.97 468.14 1903.46 471.87 1896.67 478.37
  C 1888.15 486.54 1883.38 497.24 1882.57 509.10
  Q 1882.06 516.54 1884.17 522.47
  Q 1887.02 530.46 1890.34 534.46
  C 1901.02 547.34 1919.80 550.45 1934.58 542.34
  Q 1948.21 534.85 1953.44 520.35
  A 4.14 4.12 54.7 0 0 1953.67 518.99
  L 1953.67 448.61"
/>
</g>
<path fill="none" d="
  M 2172.00 0.00
  L 2172.00 724.00
  L 0.00 724.00
  L 0.00 0.00
  L 2172.00 0.00
  Z
  M 734.72 135.31
  Q 735.24 135.28 735.71 134.97
  Q 741.61 131.12 746.64 126.89
  Q 748.87 125.02 749.53 122.97
  A 1.20 1.20 0.0 0 0 748.39 121.41
  L 741.89 121.41
  A 1.28 1.28 0.0 0 0 740.76 122.09
  L 734.25 134.59
  A 0.49 0.49 0.0 0 0 734.72 135.31
  Z
  M 1401.23 193.45
  Q 1401.78 193.17 1402.34 192.28
  A 1.85 1.59 -61.9 0 1 1404.41 191.48
  Q 1406.99 192.52 1410.97 193.71
  C 1423.48 197.46 1438.72 191.22 1436.86 175.93
  C 1435.70 166.38 1425.80 161.93 1417.42 159.07
  Q 1413.12 157.60 1410.67 155.08
  C 1407.58 151.89 1407.40 145.78 1411.24 142.88
  C 1415.76 139.46 1422.16 140.63 1426.14 144.35
  Q 1430.27 148.21 1431.52 155.10
  A 0.67 0.67 0.0 0 0 1432.18 155.65
  L 1432.51 155.65
  A 0.33 0.32 -90.0 0 0 1432.83 155.32
  L 1432.83 140.50
  A 0.59 0.59 0.0 0 0 1431.82 140.08
  L 1430.14 141.75
  A 0.80 0.79 -57.2 0 1 1429.28 141.94
  Q 1427.34 141.21 1425.40 140.46
  Q 1414.83 136.39 1406.42 142.55
  C 1397.60 149.02 1398.85 160.21 1407.45 166.13
  C 1413.53 170.32 1430.96 172.74 1428.60 184.63
  Q 1427.45 190.40 1422.85 192.05
  C 1415.44 194.70 1407.20 190.36 1404.38 183.13
  Q 1403.92 181.95 1401.93 176.11
  A 0.74 0.73 -54.4 0 0 1400.50 176.35
  L 1400.50 193.01
  A 0.50 0.50 0.0 0 0 1401.23 193.45
  Z
  M 739.6333 139.0083
  A 27.96 26.77 -87.0 0 0 711.4367 165.5290
  A 27.96 26.77 -87.0 0 0 736.7067 194.8517
  A 27.96 26.77 -87.0 0 0 764.9033 168.3310
  A 27.96 26.77 -87.0 0 0 739.6333 139.0083
  Z
  M 1207.70 156.09
  L 1207.70 141.30
  A 0.89 0.89 0.0 0 0 1206.01 140.91
  C 1205.04 142.90 1204.39 143.57 1202.07 142.30
  Q 1190.89 136.19 1178.93 140.92
  Q 1171.01 144.05 1166.87 150.12
  C 1157.50 163.89 1160.09 184.37 1176.29 191.94
  Q 1190.45 198.57 1203.57 190.31
  C 1204.97 189.43 1205.37 189.46 1206.71 190.20
  A 0.92 0.92 0.0 0 0 1208.08 189.40
  L 1208.08 178.07
  A 0.52 0.51 51.4 0 0 1207.06 177.95
  C 1204.42 190.01 1190.00 198.42 1179.90 188.38
  C 1176.80 185.31 1175.44 181.58 1174.64 177.64
  Q 1172.08 165.04 1175.78 152.77
  C 1178.16 144.87 1184.32 139.16 1193.10 141.35
  Q 1202.28 143.64 1205.31 153.17
  Q 1205.70 154.40 1206.28 156.30
  A 0.73 0.73 0.0 0 0 1207.70 156.09
  Z
  M 835.39 193.26
  A 0.89 0.88 -2.9 0 0 836.27 194.05
  L 859.38 193.98
  A 0.37 0.36 90.0 0 0 859.74 193.61
  L 859.74 193.21
  A 0.74 0.74 0.0 0 0 859.08 192.47
  C 855.53 192.08 852.82 192.14 852.69 187.64
  Q 852.45 179.32 852.76 170.74
  A 0.63 0.63 0.0 0 1 853.44 170.14
  Q 860.41 170.68 867.21 169.14
  C 875.51 167.26 880.22 159.96 878.49 151.69
  C 876.67 143.05 868.75 139.59 860.45 139.63
  Q 846.27 139.71 836.17 139.68
  A 0.83 0.83 0.0 0 0 835.33 140.52
  L 835.33 140.56
  A 0.88 0.87 -1.0 0 0 836.23 141.42
  Q 838.77 141.38 840.47 142.28
  A 2.69 2.68 -76.6 0 1 841.89 144.60
  Q 842.31 168.73 842.15 188.39
  Q 842.11 192.57 836.22 192.37
  A 0.81 0.81 0.0 0 0 835.38 193.22
  L 835.39 193.26
  Z
  M 971.29 139.68
  Q 948.71 139.72 948.60 139.75
  A 0.34 0.34 0.0 0 0 948.33 140.08
  L 948.26 155.76
  A 0.70 0.70 0.0 0 0 948.99 156.47
  L 949.04 156.47
  A 1.03 1.01 0.3 0 0 949.96 155.57
  Q 950.45 151.26 952.09 148.33
  Q 956.26 140.89 965.57 141.90
  A 0.50 0.49 3.3 0 1 966.01 142.39
  Q 966.17 169.84 966.15 187.73
  C 966.15 191.90 963.11 192.54 959.76 192.46
  A 0.61 0.61 0.0 0 0 959.13 193.07
  L 959.13 193.36
  A 0.73 0.73 0.0 0 0 959.88 194.09
  Q 965.44 193.97 971.39 194.07
  Q 977.34 193.95 982.90 194.05
  A 0.73 0.73 0.0 0 0 983.65 193.31
  L 983.65 193.02
  A 0.61 0.61 0.0 0 0 983.02 192.42
  C 979.67 192.51 976.63 191.88 976.61 187.71
  Q 976.53 169.82 976.59 142.37
  A 0.50 0.49 -3.5 0 1 977.03 141.88
  Q 986.33 140.83 990.53 148.26
  Q 992.18 151.18 992.69 155.49
  A 1.03 1.01 -0.5 0 0 993.61 156.39
  L 993.66 156.39
  A 0.70 0.70 0.0 0 0 994.39 155.68
  L 994.26 140.00
  A 0.34 0.34 0.0 0 0 993.99 139.67
  Q 993.87 139.64 971.29 139.68
  Z
  M 1331.45 193.27
  A 0.78 0.77 4.5 0 0 1330.77 192.48
  Q 1326.04 191.90 1325.01 189.23
  Q 1315.99 165.76 1306.80 142.21
  C 1306.11 140.44 1305.86 139.03 1303.78 139.57
  A 1.53 1.52 3.0 0 0 1302.74 140.50
  Q 1296.05 158.08 1285.98 184.95
  C 1284.53 188.80 1282.77 192.29 1278.35 192.38
  A 0.87 0.87 0.0 0 0 1277.50 193.23
  L 1277.50 193.26
  A 0.79 0.79 0.0 0 0 1278.28 194.07
  L 1293.48 194.10
  A 0.82 0.82 0.0 0 0 1294.30 193.32
  L 1294.31 193.23
  A 0.82 0.82 0.0 0 0 1293.53 192.38
  C 1289.39 192.15 1286.65 191.17 1288.24 186.27
  Q 1290.30 179.97 1291.74 176.35
  A 1.12 1.12 0.0 0 1 1292.78 175.64
  L 1308.24 175.64
  A 1.05 1.04 80.0 0 1 1309.22 176.33
  L 1313.93 189.11
  A 2.04 2.03 -20.6 0 1 1312.75 191.71
  Q 1310.85 192.46 1308.98 192.38
  A 0.82 0.82 0.0 0 0 1308.13 193.22
  L 1308.13 193.30
  A 0.86 0.86 0.0 0 0 1309.00 194.12
  L 1330.74 193.98
  A 0.72 0.72 0.0 0 0 1331.45 193.30
  L 1331.45 193.27
  Z
  M 1072.80 166.91
  Q 1072.82 186.75 1072.85 187.54
  C 1073.03 191.99 1069.86 192.25 1066.33 192.33
  A 0.69 0.68 89.1 0 0 1065.67 193.02
  L 1065.67 193.31
  A 0.79 0.79 0.0 0 0 1066.47 194.10
  Q 1072.00 194.04 1077.95 194.08
  Q 1083.90 194.03 1089.43 194.08
  A 0.79 0.79 0.0 0 0 1090.23 193.29
  L 1090.23 193.00
  A 0.69 0.68 -89.3 0 0 1089.57 192.31
  C 1086.04 192.23 1082.87 191.98 1083.04 187.53
  Q 1083.07 186.74 1083.05 166.90
  Q 1083.03 147.06 1083.00 146.28
  C 1082.82 141.82 1085.99 141.56 1089.52 141.48
  A 0.69 0.68 89.1 0 0 1090.18 140.79
  L 1090.18 140.50
  A 0.79 0.79 0.0 0 0 1089.38 139.71
  Q 1083.85 139.77 1077.90 139.73
  Q 1071.95 139.78 1066.42 139.73
  A 0.79 0.79 0.0 0 0 1065.62 140.53
  L 1065.62 140.82
  A 0.69 0.68 -89.3 0 0 1066.28 141.51
  C 1069.81 141.58 1072.98 141.83 1072.81 146.28
  Q 1072.78 147.07 1072.80 166.91
  Z
  M 626.22 161.72
  A 0.57 0.57 0.0 0 0 625.65 161.15
  L 142.07 161.15
  A 0.57 0.57 0.0 0 0 141.50 161.72
  L 141.50 168.12
  A 0.57 0.57 0.0 0 0 142.07 168.69
  L 625.65 168.69
  A 0.57 0.57 0.0 0 0 626.22 168.12
  L 626.22 161.72
  Z
  M 2029.74 161.91
  A 0.74 0.74 0.0 0 0 2029.00 161.17
  L 1531.66 161.17
  A 0.74 0.74 0.0 0 0 1530.92 161.91
  L 1530.92 167.95
  A 0.74 0.74 0.0 0 0 1531.66 168.69
  L 2029.00 168.69
  A 0.74 0.74 0.0 0 0 2029.74 167.95
  L 2029.74 161.91
  Z
  M 413.59 348.63
  A 0.73 0.73 0.0 0 0 414.32 347.90
  L 414.32 261.28
  A 0.64 0.64 0.0 0 0 413.79 260.65
  Q 411.64 260.25 409.76 260.53
  A 1.22 1.19 5.2 0 0 408.81 261.30
  C 407.91 263.72 406.92 266.61 405.63 268.33
  C 399.87 276.06 389.67 275.98 381.43 272.80
  Q 370.62 268.63 365.87 266.89
  C 329.03 253.35 288.42 255.54 252.74 270.69
  C 225.66 282.19 201.32 299.91 184.66 324.44
  Q 157.69 364.15 155.85 411.73
  C 154.11 457.00 172.51 504.04 207.97 532.95
  Q 222.31 544.64 237.58 551.39
  Q 255.95 559.52 271.17 562.56
  Q 290.52 566.43 313.50 566.18
  Q 331.51 565.98 353.20 559.94
  C 362.29 557.41 372.22 552.62 382.01 548.76
  Q 388.69 546.12 393.03 546.01
  C 402.73 545.75 408.40 552.71 410.17 561.68
  A 0.73 0.73 0.0 0 0 410.79 562.26
  Q 412.70 562.52 414.48 562.25
  A 0.68 0.67 -4.5 0 0 415.05 561.59
  L 415.05 477.61
  A 1.03 1.02 -0.0 0 0 414.02 476.59
  L 412.35 476.59
  A 1.34 1.33 4.5 0 0 411.03 477.71
  C 406.43 506.26 390.56 533.62 365.32 548.39
  C 354.17 554.91 338.70 559.61 325.95 560.88
  C 296.58 563.80 269.91 553.89 249.40 533.02
  C 230.50 513.78 219.81 488.49 214.52 461.97
  C 209.85 438.52 208.99 414.12 210.90 390.94
  Q 213.26 362.35 222.85 336.02
  C 227.79 322.44 234.70 309.11 243.38 298.64
  Q 254.18 285.65 265.64 278.69
  C 289.86 264.01 320.69 261.56 347.59 270.04
  C 382.91 281.18 404.09 311.69 409.28 347.84
  A 0.93 0.92 85.6 0 0 410.19 348.63
  L 413.59 348.63
  Z
  M 1041.94 391.93
  Q 1035.34 395.25 1023.49 401.98
  Q 1002.58 413.86 986.28 430.27
  Q 974.32 442.31 967.36 456.85
  Q 955.87 480.87 962.43 507.11
  C 968.65 531.99 986.61 550.25 1011.30 558.37
  Q 1019.90 561.20 1024.22 562.00
  Q 1059.20 568.47 1092.19 556.17
  Q 1109.27 549.80 1123.08 540.10
  Q 1135.73 531.22 1146.22 521.90
  A 0.55 0.54 49.1 0 1 1146.99 521.96
  Q 1151.67 527.48 1160.94 537.60
  Q 1167.24 544.48 1174.21 550.08
  Q 1183.06 557.19 1194.08 560.79
  C 1218.54 568.77 1244.01 562.10 1261.67 544.16
  Q 1267.07 538.68 1273.97 529.16
  A 0.90 0.89 -49.7 0 0 1273.88 527.99
  L 1271.30 525.41
  A 0.92 0.92 0.0 0 0 1269.97 525.44
  Q 1264.49 531.40 1257.59 535.18
  C 1246.42 541.30 1233.28 539.17 1222.26 532.64
  Q 1213.64 527.53 1204.67 518.14
  Q 1192.82 505.74 1177.44 488.12
  A 0.77 0.77 0.0 0 1 1177.41 487.14
  Q 1191.07 469.42 1201.81 448.09
  C 1205.75 440.26 1211.75 425.41 1217.05 414.24
  Q 1221.57 404.72 1222.68 402.70
  Q 1232.24 385.43 1251.25 380.78
  Q 1256.38 379.53 1266.87 378.92
  A 0.61 0.61 0.0 0 0 1267.45 378.31
  L 1267.45 374.57
  A 0.54 0.53 -0.0 0 0 1266.91 374.04
  L 1176.00 374.04
  A 1.13 1.13 0.0 0 0 1174.87 375.17
  L 1174.87 378.09
  A 1.09 1.09 0.0 0 0 1175.98 379.18
  C 1185.55 379.03 1198.08 380.70 1202.90 390.35
  C 1210.87 406.29 1204.07 423.71 1197.72 438.57
  C 1195.97 442.67 1193.55 446.73 1191.44 451.12
  C 1186.32 461.72 1179.93 470.99 1172.25 480.97
  A 0.38 0.38 0.0 0 1 1171.66 480.99
  C 1163.09 471.43 1151.14 457.32 1132.89 435.75
  Q 1122.18 423.08 1092.29 385.59
  Q 1091.01 383.99 1087.67 379.46
  A 0.44 0.44 0.0 0 1 1087.85 378.79
  Q 1097.07 374.70 1107.95 369.21
  Q 1121.69 362.28 1132.95 351.74
  C 1146.83 338.76 1153.31 321.54 1149.87 302.71
  C 1147.63 290.44 1139.93 278.85 1129.21 271.96
  C 1107.51 258.01 1080.19 257.29 1057.19 267.70
  C 1038.22 276.30 1023.69 292.54 1019.03 312.75
  Q 1016.42 324.04 1016.78 331.02
  Q 1017.65 348.33 1025.78 364.75
  C 1030.81 374.92 1036.04 382.22 1042.12 391.24
  A 0.48 0.47 59.8 0 1 1041.94 391.93
  Z
  M 1394.34 555.56
  L 1394.34 558.71
  A 0.72 0.72 0.0 0 0 1395.06 559.43
  L 1617.64 559.43
  A 0.80 0.80 0.0 0 0 1618.44 558.63
  L 1618.44 477.07
  A 0.50 0.50 0.0 0 0 1617.94 476.57
  L 1615.68 476.57
  A 0.78 0.78 0.0 0 0 1614.91 477.22
  C 1612.32 492.84 1608.42 508.03 1599.95 521.46
  C 1591.74 534.48 1581.22 543.83 1567.12 547.86
  Q 1551.30 552.38 1534.25 552.53
  C 1516.42 552.69 1502.28 553.25 1487.80 550.44
  Q 1475.74 548.10 1472.38 536.66
  Q 1470.32 529.68 1470.31 524.99
  Q 1470.24 480.20 1470.31 408.60
  A 0.42 0.42 0.0 0 1 1470.73 408.18
  Q 1485.73 408.18 1494.39 408.10
  C 1500.38 408.05 1507.02 408.55 1511.81 409.51
  C 1538.69 414.92 1548.31 435.93 1549.85 461.32
  A 1.29 1.29 0.0 0 0 1551.14 462.54
  L 1552.88 462.54
  A 1.26 1.25 90.0 0 0 1554.13 461.28
  L 1554.13 349.17
  A 1.10 1.09 90.0 0 0 1553.04 348.07
  L 1551.08 348.07
  A 1.25 1.24 -87.8 0 0 1549.84 349.22
  C 1547.96 372.80 1539.49 393.46 1514.64 399.86
  Q 1505.94 402.09 1499.71 402.19
  Q 1483.34 402.44 1470.88 402.11
  A 0.61 0.61 0.0 0 1 1470.29 401.50
  Q 1470.21 322.68 1470.34 287.27
  C 1470.40 272.13 1481.36 271.03 1493.25 271.06
  Q 1512.10 271.12 1529.24 271.31
  Q 1544.39 271.48 1557.62 275.90
  Q 1575.81 281.97 1586.85 298.20
  C 1594.18 308.98 1596.94 322.49 1598.81 335.24
  A 0.93 0.92 86.0 0 0 1599.72 336.04
  L 1602.82 336.04
  A 0.72 0.72 0.0 0 0 1603.54 335.32
  L 1603.54 264.37
  A 0.72 0.72 0.0 0 0 1602.82 263.65
  L 1395.28 263.65
  A 0.89 0.89 0.0 0 0 1394.39 264.54
  L 1394.39 267.66
  A 0.87 0.87 0.0 0 0 1395.27 268.53
  C 1405.28 268.38 1418.88 268.97 1423.02 280.38
  Q 1425.16 286.26 1425.17 295.00
  Q 1425.32 412.55 1425.21 529.75
  C 1425.20 539.93 1422.60 549.72 1411.64 552.86
  Q 1403.20 555.27 1395.03 554.90
  A 0.66 0.66 0.0 0 0 1394.34 555.56
  Z
  M 1727.99 412.80
  L 1727.99 367.37
  A 1.31 1.31 0.0 0 0 1727.04 366.11
  C 1723.98 365.24 1722.03 364.98 1718.58 366.03
  Q 1702.14 371.03 1678.49 376.73
  Q 1672.55 378.16 1669.08 378.36
  A 1.23 1.22 88.3 0 0 1667.93 379.59
  L 1667.93 380.87
  A 1.17 1.17 0.0 0 0 1669.11 382.04
  C 1682.61 381.88 1687.82 389.84 1687.83 402.26
  Q 1687.86 477.54 1687.80 531.86
  C 1687.79 540.39 1686.25 548.34 1678.07 552.58
  Q 1673.23 555.10 1661.05 554.98
  A 0.72 0.72 0.0 0 0 1660.32 555.70
  L 1660.32 558.70
  A 0.72 0.72 0.0 0 0 1661.04 559.42
  L 1755.79 559.42
  A 0.80 0.79 -90.0 0 0 1756.58 558.62
  L 1756.58 555.61
  A 0.77 0.77 0.0 0 0 1755.82 554.84
  Q 1749.46 554.74 1744.30 553.91
  C 1736.76 552.70 1731.38 549.93 1729.32 542.18
  Q 1727.99 537.20 1728.01 532.49
  Q 1728.19 480.40 1728.02 455.45
  Q 1727.91 438.36 1729.43 431.65
  Q 1733.39 414.09 1745.35 400.38
  Q 1749.29 395.87 1757.34 391.92
  C 1764.99 388.17 1776.19 389.14 1777.74 398.77
  Q 1778.58 403.96 1778.82 404.49
  C 1784.43 416.89 1800.69 418.30 1809.86 409.29
  Q 1815.69 403.55 1816.51 396.33
  C 1819.14 373.09 1799.33 362.12 1778.88 366.63
  Q 1767.91 369.05 1757.39 376.83
  Q 1737.86 391.27 1728.41 412.89
  A 0.22 0.22 0.0 0 1 1727.99 412.80
  Z
  M 571.44 534.38
  Q 572.27 539.33 573.97 544.28
  C 580.52 563.35 603.45 566.33 620.24 562.22
  Q 637.20 558.08 648.50 546.61
  A 0.88 0.87 -45.5 0 0 648.50 545.37
  L 646.02 542.89
  A 0.81 0.81 0.0 0 0 644.90 542.86
  C 638.44 548.68 629.39 552.70 621.07 549.41
  C 614.92 546.98 611.22 538.23 611.20 532.27
  Q 611.07 489.13 611.20 421.01
  C 611.22 411.70 610.60 402.26 606.49 394.30
  C 599.37 380.49 585.33 371.93 569.63 368.32
  Q 535.87 360.57 505.40 373.90
  C 490.88 380.26 469.15 396.03 471.67 414.52
  C 473.14 425.33 482.09 431.78 492.58 432.05
  Q 499.75 432.24 505.39 427.94
  Q 516.09 419.78 512.22 406.41
  C 510.57 400.71 506.84 398.42 502.39 395.26
  A 2.24 2.11 -88.3 0 1 501.76 394.55
  C 499.12 389.75 502.19 384.69 505.96 381.43
  C 514.76 373.83 527.33 370.98 538.77 372.20
  C 555.16 373.95 565.45 384.21 569.09 399.55
  C 572.06 412.14 571.54 424.54 571.29 437.93
  A 1.96 1.95 72.6 0 1 570.49 439.47
  C 562.26 445.44 554.03 449.32 543.22 453.35
  Q 515.16 463.82 510.24 465.79
  C 486.68 475.24 462.16 490.78 460.55 518.99
  C 459.87 530.96 464.00 541.82 472.37 550.26
  C 479.30 557.25 491.26 561.98 500.86 563.38
  C 520.56 566.24 540.66 561.87 556.32 549.37
  Q 565.08 542.38 571.11 534.30
  A 0.18 0.18 0.0 0 1 571.44 534.38
  Z
  M 750.96 413.26
  A 0.13 0.13 0.0 0 1 750.84 413.13
  L 750.84 367.24
  A 0.92 0.91 -79.9 0 0 750.24 366.38
  Q 745.64 364.70 741.06 366.08
  Q 716.45 373.51 690.74 378.29
  A 0.91 0.90 -83.7 0 0 690.08 378.82
  Q 689.48 380.17 690.02 381.19
  A 1.03 1.03 0.0 0 0 690.93 381.74
  Q 703.38 381.78 707.39 391.12
  Q 708.97 394.80 708.97 407.33
  Q 708.93 530.33 708.94 531.75
  Q 708.99 537.01 707.76 542.54
  C 705.29 553.64 692.32 555.34 683.04 554.88
  A 1.08 1.08 0.0 0 0 681.91 555.96
  L 681.91 558.51
  A 0.96 0.95 90.0 0 0 682.86 559.47
  L 780.13 559.47
  A 0.79 0.79 0.0 0 0 780.92 558.68
  L 780.92 555.61
  A 0.73 0.73 0.0 0 0 780.17 554.88
  C 773.29 555.03 763.28 554.25 757.42 550.19
  C 751.96 546.41 750.98 535.87 751.07 530.00
  Q 751.26 516.68 751.09 454.23
  Q 751.04 437.53 752.64 430.39
  C 756.00 415.39 764.12 400.89 777.58 392.90
  C 784.21 388.96 795.04 388.00 799.59 395.55
  Q 800.37 396.85 800.74 400.62
  Q 801.50 408.61 809.34 412.71
  C 820.90 418.76 834.12 413.04 839.08 401.52
  Q 842.75 393.00 839.40 383.31
  C 836.29 374.30 829.63 369.03 820.41 366.68
  C 804.69 362.68 787.47 370.07 775.76 380.04
  Q 763.73 390.29 754.98 405.21
  Q 752.71 409.07 751.60 412.83
  Q 751.46 413.29 750.96 413.26
  Z
  M 1954.19 534.20
  Q 1955.28 544.52 1960.09 550.96
  C 1967.51 560.92 1980.82 564.82 1993.25 563.95
  Q 2016.13 562.35 2031.43 546.70
  A 0.84 0.84 0.0 0 0 2031.42 545.51
  L 2028.92 543.00
  A 0.72 0.71 -44.4 0 0 2027.93 542.99
  C 2022.78 547.95 2015.85 551.65 2008.55 550.43
  Q 2002.25 549.37 1999.56 544.70
  Q 1995.98 538.50 1995.98 530.25
  Q 1996.04 446.74 1996.10 424.00
  C 1996.13 412.84 1994.61 402.86 1989.11 393.79
  Q 1985.25 387.43 1981.85 384.18
  C 1973.75 376.47 1964.70 371.46 1953.41 368.64
  C 1922.33 360.88 1884.72 367.33 1862.14 391.64
  C 1855.24 399.06 1851.11 410.18 1855.32 419.84
  C 1860.47 431.65 1874.96 435.14 1885.64 429.53
  C 1898.43 422.81 1899.19 404.70 1887.40 397.03
  Q 1886.48 396.44 1885.45 395.76
  C 1880.16 392.25 1884.79 383.86 1888.07 381.38
  Q 1904.58 368.90 1925.62 372.79
  C 1945.93 376.55 1952.81 395.51 1953.50 413.76
  Q 1953.90 424.53 1953.51 438.33
  A 1.03 1.03 0.0 0 1 1953.10 439.13
  Q 1945.08 445.00 1935.62 449.11
  Q 1930.30 451.42 1906.32 460.21
  C 1887.96 466.93 1871.60 473.88 1857.43 486.45
  C 1840.05 501.88 1835.48 529.02 1851.06 547.37
  Q 1858.63 556.27 1872.62 560.98
  C 1892.32 567.60 1915.02 564.10 1932.45 553.22
  Q 1945.17 545.28 1953.56 534.03
  A 0.35 0.35 0.0 0 1 1954.19 534.20
  Z"
/>
<path fill="#e2c6a6" d="
  M 734.72 135.31
  A 0.49 0.49 0.0 0 1 734.25 134.59
  L 740.76 122.09
  A 1.28 1.28 0.0 0 1 741.89 121.41
  L 748.39 121.41
  A 1.20 1.20 0.0 0 1 749.53 122.97
  Q 748.87 125.02 746.64 126.89
  Q 741.61 131.12 735.71 134.97
  Q 735.24 135.28 734.72 135.31
  Z"
/>
<path fill="#e2c6a6" d="
  M 1401.23 193.45
  A 0.50 0.50 0.0 0 1 1400.50 193.01
  L 1400.50 176.35
  A 0.74 0.73 -54.4 0 1 1401.93 176.11
  Q 1403.92 181.95 1404.38 183.13
  C 1407.20 190.36 1415.44 194.70 1422.85 192.05
  Q 1427.45 190.40 1428.60 184.63
  C 1430.96 172.74 1413.53 170.32 1407.45 166.13
  C 1398.85 160.21 1397.60 149.02 1406.42 142.55
  Q 1414.83 136.39 1425.40 140.46
  Q 1427.34 141.21 1429.28 141.94
  A 0.80 0.79 -57.2 0 0 1430.14 141.75
  L 1431.82 140.08
  A 0.59 0.59 0.0 0 1 1432.83 140.50
  L 1432.83 155.32
  A 0.33 0.32 -90.0 0 1 1432.51 155.65
  L 1432.18 155.65
  A 0.67 0.67 0.0 0 1 1431.52 155.10
  Q 1430.27 148.21 1426.14 144.35
  C 1422.16 140.63 1415.76 139.46 1411.24 142.88
  C 1407.40 145.78 1407.58 151.89 1410.67 155.08
  Q 1413.12 157.60 1417.42 159.07
  C 1425.80 161.93 1435.70 166.38 1436.86 175.93
  C 1438.72 191.22 1423.48 197.46 1410.97 193.71
  Q 1406.99 192.52 1404.41 191.48
  A 1.85 1.59 -61.9 0 0 1402.34 192.28
  Q 1401.78 193.17 1401.23 193.45
  Z"
/>
<path fill="#e2c6a6" d="
  M 739.6333 139.0083
  A 27.96 26.77 -87.0 0 1 764.9033 168.3310
  A 27.96 26.77 -87.0 0 1 736.7067 194.8517
  A 27.96 26.77 -87.0 0 1 711.4367 165.5290
  A 27.96 26.77 -87.0 0 1 739.6333 139.0083
  Z
  M 723.60 166.89
  C 723.59 176.30 724.82 193.00 738.20 193.02
  C 751.57 193.04 752.84 176.34 752.85 166.93
  C 752.86 157.52 751.63 140.81 738.26 140.80
  C 724.89 140.78 723.61 157.48 723.60 166.89
  Z"
/>
<path fill="#e2c6a6" d="
  M 1207.70 156.09
  A 0.73 0.73 0.0 0 1 1206.28 156.30
  Q 1205.70 154.40 1205.31 153.17
  Q 1202.28 143.64 1193.10 141.35
  C 1184.32 139.16 1178.16 144.87 1175.78 152.77
  Q 1172.08 165.04 1174.64 177.64
  C 1175.44 181.58 1176.80 185.31 1179.90 188.38
  C 1190.00 198.42 1204.42 190.01 1207.06 177.95
  A 0.52 0.51 51.4 0 1 1208.08 178.07
  L 1208.08 189.40
  A 0.92 0.92 0.0 0 1 1206.71 190.20
  C 1205.37 189.46 1204.97 189.43 1203.57 190.31
  Q 1190.45 198.57 1176.29 191.94
  C 1160.09 184.37 1157.50 163.89 1166.87 150.12
  Q 1171.01 144.05 1178.93 140.92
  Q 1190.89 136.19 1202.07 142.30
  C 1204.39 143.57 1205.04 142.90 1206.01 140.91
  A 0.89 0.89 0.0 0 1 1207.70 141.30
  L 1207.70 156.09
  Z"
/>
<path fill="#e2c6a6" d="
  M 835.39 193.26
  L 835.38 193.22
  A 0.81 0.81 0.0 0 1 836.22 192.37
  Q 842.11 192.57 842.15 188.39
  Q 842.31 168.73 841.89 144.60
  A 2.69 2.68 -76.6 0 0 840.47 142.28
  Q 838.77 141.38 836.23 141.42
  A 0.88 0.87 -1.0 0 1 835.33 140.56
  L 835.33 140.52
  A 0.83 0.83 0.0 0 1 836.17 139.68
  Q 846.27 139.71 860.45 139.63
  C 868.75 139.59 876.67 143.05 878.49 151.69
  C 880.22 159.96 875.51 167.26 867.21 169.14
  Q 860.41 170.68 853.44 170.14
  A 0.63 0.63 0.0 0 0 852.76 170.74
  Q 852.45 179.32 852.69 187.64
  C 852.82 192.14 855.53 192.08 859.08 192.47
  A 0.74 0.74 0.0 0 1 859.74 193.21
  L 859.74 193.61
  A 0.37 0.36 90.0 0 1 859.38 193.98
  L 836.27 194.05
  A 0.89 0.88 -2.9 0 1 835.39 193.26
  Z
  M 852.86 142.69
  L 852.74 167.15
  A 1.06 1.06 0.0 0 0 853.79 168.22
  L 857.55 168.24
  A 10.50 10.04 -89.7 0 0 867.65 157.79
  L 867.67 152.21
  A 10.50 10.04 -89.7 0 0 857.69 141.66
  L 853.93 141.64
  A 1.06 1.06 0.0 0 0 852.86 142.69
  Z"
/>
<path fill="#e2c6a6" d="
  M 971.39 194.07
  Q 965.44 193.97 959.88 194.09
  A 0.73 0.73 0.0 0 1 959.13 193.36
  L 959.13 193.07
  A 0.61 0.61 0.0 0 1 959.76 192.46
  C 963.11 192.54 966.15 191.90 966.15 187.73
  Q 966.17 169.84 966.01 142.39
  A 0.50 0.49 3.3 0 0 965.57 141.90
  Q 956.26 140.89 952.09 148.33
  Q 950.45 151.26 949.96 155.57
  A 1.03 1.01 0.3 0 1 949.04 156.47
  L 948.99 156.47
  A 0.70 0.70 0.0 0 1 948.26 155.76
  L 948.33 140.08
  A 0.34 0.34 0.0 0 1 948.60 139.75
  Q 948.71 139.72 971.29 139.68
  Q 993.87 139.64 993.99 139.67
  A 0.34 0.34 0.0 0 1 994.26 140.00
  L 994.39 155.68
  A 0.70 0.70 0.0 0 1 993.66 156.39
  L 993.61 156.39
  A 1.03 1.01 -0.5 0 1 992.69 155.49
  Q 992.18 151.18 990.53 148.26
  Q 986.33 140.83 977.03 141.88
  A 0.50 0.49 -3.5 0 0 976.59 142.37
  Q 976.53 169.82 976.61 187.71
  C 976.63 191.88 979.67 192.51 983.02 192.42
  A 0.61 0.61 0.0 0 1 983.65 193.02
  L 983.65 193.31
  A 0.73 0.73 0.0 0 1 982.90 194.05
  Q 977.34 193.95 971.39 194.07
  Z"
/>
<path fill="#e2c6a6" d="
  M 1331.45 193.27
  L 1331.45 193.30
  A 0.72 0.72 0.0 0 1 1330.74 193.98
  L 1309.00 194.12
  A 0.86 0.86 0.0 0 1 1308.13 193.30
  L 1308.13 193.22
  A 0.82 0.82 0.0 0 1 1308.98 192.38
  Q 1310.85 192.46 1312.75 191.71
  A 2.04 2.03 -20.6 0 0 1313.93 189.11
  L 1309.22 176.33
  A 1.05 1.04 80.0 0 0 1308.24 175.64
  L 1292.78 175.64
  A 1.12 1.12 0.0 0 0 1291.74 176.35
  Q 1290.30 179.97 1288.24 186.27
  C 1286.65 191.17 1289.39 192.15 1293.53 192.38
  A 0.82 0.82 0.0 0 1 1294.31 193.23
  L 1294.30 193.32
  A 0.82 0.82 0.0 0 1 1293.48 194.10
  L 1278.28 194.07
  A 0.79 0.79 0.0 0 1 1277.50 193.26
  L 1277.50 193.23
  A 0.87 0.87 0.0 0 1 1278.35 192.38
  C 1282.77 192.29 1284.53 188.80 1285.98 184.95
  Q 1296.05 158.08 1302.74 140.50
  A 1.53 1.52 3.0 0 1 1303.78 139.57
  C 1305.86 139.03 1306.11 140.44 1306.80 142.21
  Q 1315.99 165.76 1325.01 189.23
  Q 1326.04 191.90 1330.77 192.48
  A 0.78 0.77 4.5 0 1 1331.45 193.27
  Z
  M 1292.82 172.77
  A 0.52 0.52 0.0 0 0 1293.31 173.47
  L 1307.12 173.40
  A 0.52 0.52 0.0 0 0 1307.60 172.70
  L 1300.60 154.31
  A 0.52 0.52 0.0 0 0 1299.63 154.32
  L 1292.82 172.77
  Z"
/>
<path fill="#e2c6a6" d="
  M 1077.90 139.73
  Q 1083.85 139.77 1089.38 139.71
  A 0.79 0.79 0.0 0 1 1090.18 140.50
  L 1090.18 140.79
  A 0.69 0.68 89.1 0 1 1089.52 141.48
  C 1085.99 141.56 1082.82 141.82 1083.00 146.28
  Q 1083.03 147.06 1083.05 166.90
  Q 1083.07 186.74 1083.04 187.53
  C 1082.87 191.98 1086.04 192.23 1089.57 192.31
  A 0.69 0.68 -89.3 0 1 1090.23 193.00
  L 1090.23 193.29
  A 0.79 0.79 0.0 0 1 1089.43 194.08
  Q 1083.90 194.03 1077.95 194.08
  Q 1072.00 194.04 1066.47 194.10
  A 0.79 0.79 0.0 0 1 1065.67 193.31
  L 1065.67 193.02
  A 0.69 0.68 89.1 0 1 1066.33 192.33
  C 1069.86 192.25 1073.03 191.99 1072.85 187.54
  Q 1072.82 186.75 1072.80 166.91
  Q 1072.78 147.07 1072.81 146.28
  C 1072.98 141.83 1069.81 141.58 1066.28 141.51
  A 0.69 0.68 -89.3 0 1 1065.62 140.82
  L 1065.62 140.53
  A 0.79 0.79 0.0 0 1 1066.42 139.73
  Q 1071.95 139.78 1077.90 139.73
  Z"
/>
<path fill="none" d="
  M 738.26 140.80
  C 751.63 140.81 752.86 157.52 752.85 166.93
  C 752.84 176.34 751.57 193.04 738.20 193.02
  C 724.82 193.00 723.59 176.30 723.60 166.89
  C 723.61 157.48 724.89 140.78 738.26 140.80
  Z"
/>
<path fill="none" d="
  M 852.86 142.69
  A 1.06 1.06 0.0 0 1 853.93 141.64
  L 857.69 141.66
  A 10.50 10.04 -89.7 0 1 867.67 152.21
  L 867.65 157.79
  A 10.50 10.04 -89.7 0 1 857.55 168.24
  L 853.79 168.22
  A 1.06 1.06 0.0 0 1 852.74 167.15
  L 852.86 142.69
  Z"
/>
<path fill="none" d="
  M 1292.82 172.77
  L 1299.63 154.32
  A 0.52 0.52 0.0 0 1 1300.60 154.31
  L 1307.60 172.70
  A 0.52 0.52 0.0 0 1 1307.12 173.40
  L 1293.31 173.47
  A 0.52 0.52 0.0 0 1 1292.82 172.77
  Z"
/>
<rect fill="#e2c6a6" x="141.50" y="161.15" width="484.72" height="7.54" rx="0.57"/>
<rect fill="#e2c6a6" x="1530.92" y="161.17" width="498.82" height="7.52" rx="0.74"/>
<path fill="#e2c6a6" d="
  M 413.59 348.63
  L 410.19 348.63
  A 0.93 0.92 85.6 0 1 409.28 347.84
  C 404.09 311.69 382.91 281.18 347.59 270.04
  C 320.69 261.56 289.86 264.01 265.64 278.69
  Q 254.18 285.65 243.38 298.64
  C 234.70 309.11 227.79 322.44 222.85 336.02
  Q 213.26 362.35 210.90 390.94
  C 208.99 414.12 209.85 438.52 214.52 461.97
  C 219.81 488.49 230.50 513.78 249.40 533.02
  C 269.91 553.89 296.58 563.80 325.95 560.88
  C 338.70 559.61 354.17 554.91 365.32 548.39
  C 390.56 533.62 406.43 506.26 411.03 477.71
  A 1.34 1.33 4.5 0 1 412.35 476.59
  L 414.02 476.59
  A 1.03 1.02 -0.0 0 1 415.05 477.61
  L 415.05 561.59
  A 0.68 0.67 -4.5 0 1 414.48 562.25
  Q 412.70 562.52 410.79 562.26
  A 0.73 0.73 0.0 0 1 410.17 561.68
  C 408.40 552.71 402.73 545.75 393.03 546.01
  Q 388.69 546.12 382.01 548.76
  C 372.22 552.62 362.29 557.41 353.20 559.94
  Q 331.51 565.98 313.50 566.18
  Q 290.52 566.43 271.17 562.56
  Q 255.95 559.52 237.58 551.39
  Q 222.31 544.64 207.97 532.95
  C 172.51 504.04 154.11 457.00 155.85 411.73
  Q 157.69 364.15 184.66 324.44
  C 201.32 299.91 225.66 282.19 252.74 270.69
  C 288.42 255.54 329.03 253.35 365.87 266.89
  Q 370.62 268.63 381.43 272.80
  C 389.67 275.98 399.87 276.06 405.63 268.33
  C 406.92 266.61 407.91 263.72 408.81 261.30
  A 1.22 1.19 5.2 0 1 409.76 260.53
  Q 411.64 260.25 413.79 260.65
  A 0.64 0.64 0.0 0 1 414.32 261.28
  L 414.32 347.90
  A 0.73 0.73 0.0 0 1 413.59 348.63
  Z"
/>
<path fill="#e2c6a6" d="
  M 1041.94 391.93
  A 0.48 0.47 59.8 0 0 1042.12 391.24
  C 1036.04 382.22 1030.81 374.92 1025.78 364.75
  Q 1017.65 348.33 1016.78 331.02
  Q 1016.42 324.04 1019.03 312.75
  C 1023.69 292.54 1038.22 276.30 1057.19 267.70
  C 1080.19 257.29 1107.51 258.01 1129.21 271.96
  C 1139.93 278.85 1147.63 290.44 1149.87 302.71
  C 1153.31 321.54 1146.83 338.76 1132.95 351.74
  Q 1121.69 362.28 1107.95 369.21
  Q 1097.07 374.70 1087.85 378.79
  A 0.44 0.44 0.0 0 0 1087.67 379.46
  Q 1091.01 383.99 1092.29 385.59
  Q 1122.18 423.08 1132.89 435.75
  C 1151.14 457.32 1163.09 471.43 1171.66 480.99
  A 0.38 0.38 0.0 0 0 1172.25 480.97
  C 1179.93 470.99 1186.32 461.72 1191.44 451.12
  C 1193.55 446.73 1195.97 442.67 1197.72 438.57
  C 1204.07 423.71 1210.87 406.29 1202.90 390.35
  C 1198.08 380.70 1185.55 379.03 1175.98 379.18
  A 1.09 1.09 0.0 0 1 1174.87 378.09
  L 1174.87 375.17
  A 1.13 1.13 0.0 0 1 1176.00 374.04
  L 1266.91 374.04
  A 0.54 0.53 0.0 0 1 1267.45 374.57
  L 1267.45 378.31
  A 0.61 0.61 0.0 0 1 1266.87 378.92
  Q 1256.38 379.53 1251.25 380.78
  Q 1232.24 385.43 1222.68 402.70
  Q 1221.57 404.72 1217.05 414.24
  C 1211.75 425.41 1205.75 440.26 1201.81 448.09
  Q 1191.07 469.42 1177.41 487.14
  A 0.77 0.77 0.0 0 0 1177.44 488.12
  Q 1192.82 505.74 1204.67 518.14
  Q 1213.64 527.53 1222.26 532.64
  C 1233.28 539.17 1246.42 541.30 1257.59 535.18
  Q 1264.49 531.40 1269.97 525.44
  A 0.92 0.92 0.0 0 1 1271.30 525.41
  L 1273.88 527.99
  A 0.90 0.89 -49.7 0 1 1273.97 529.16
  Q 1267.07 538.68 1261.67 544.16
  C 1244.01 562.10 1218.54 568.77 1194.08 560.79
  Q 1183.06 557.19 1174.21 550.08
  Q 1167.24 544.48 1160.94 537.60
  Q 1151.67 527.48 1146.99 521.96
  A 0.55 0.54 49.1 0 0 1146.22 521.90
  Q 1135.73 531.22 1123.08 540.10
  Q 1109.27 549.80 1092.19 556.17
  Q 1059.20 568.47 1024.22 562.00
  Q 1019.90 561.20 1011.30 558.37
  C 986.61 550.25 968.65 531.99 962.43 507.11
  Q 955.87 480.87 967.36 456.85
  Q 974.32 442.31 986.28 430.27
  Q 1002.58 413.86 1023.49 401.98
  Q 1035.34 395.25 1041.94 391.93
  Z
  M 1083.18 373.03
  Q 1095.27 368.66 1105.01 359.49
  Q 1121.34 344.15 1123.12 321.06
  C 1124.28 306.09 1120.86 287.65 1110.03 277.24
  Q 1096.55 264.30 1077.69 268.66
  Q 1059.33 272.90 1052.52 291.47
  Q 1048.94 301.23 1050.16 310.99
  C 1051.53 321.95 1055.13 331.36 1060.67 341.21
  Q 1069.80 357.43 1082.64 372.89
  A 0.49 0.48 -30.4 0 0 1083.18 373.03
  Z
  M 1140.98 515.08
  Q 1088.23 450.40 1064.49 420.51
  C 1058.19 412.58 1052.85 405.52 1046.93 398.17
  A 0.63 0.63 0.0 0 0 1046.19 397.99
  C 1010.39 413.13 993.95 451.97 1005.00 488.74
  C 1010.51 507.11 1023.07 524.02 1040.12 533.29
  Q 1048.92 538.07 1055.64 539.87
  Q 1083.93 547.46 1111.33 536.07
  Q 1126.70 529.68 1140.93 515.87
  A 0.58 0.58 0.0 0 0 1140.98 515.08
  Z"
/>
<path fill="#e2c6a6" d="
  M 1394.34 555.56
  A 0.66 0.66 0.0 0 1 1395.03 554.90
  Q 1403.20 555.27 1411.64 552.86
  C 1422.60 549.72 1425.20 539.93 1425.21 529.75
  Q 1425.32 412.55 1425.17 295.00
  Q 1425.16 286.26 1423.02 280.38
  C 1418.88 268.97 1405.28 268.38 1395.27 268.53
  A 0.87 0.87 0.0 0 1 1394.39 267.66
  L 1394.39 264.54
  A 0.89 0.89 0.0 0 1 1395.28 263.65
  L 1602.82 263.65
  A 0.72 0.72 0.0 0 1 1603.54 264.37
  L 1603.54 335.32
  A 0.72 0.72 0.0 0 1 1602.82 336.04
  L 1599.72 336.04
  A 0.93 0.92 86.0 0 1 1598.81 335.24
  C 1596.94 322.49 1594.18 308.98 1586.85 298.20
  Q 1575.81 281.97 1557.62 275.90
  Q 1544.39 271.48 1529.24 271.31
  Q 1512.10 271.12 1493.25 271.06
  C 1481.36 271.03 1470.40 272.13 1470.34 287.27
  Q 1470.21 322.68 1470.29 401.50
  A 0.61 0.61 0.0 0 0 1470.88 402.11
  Q 1483.34 402.44 1499.71 402.19
  Q 1505.94 402.09 1514.64 399.86
  C 1539.49 393.46 1547.96 372.80 1549.84 349.22
  A 1.25 1.24 -87.8 0 1 1551.08 348.07
  L 1553.04 348.07
  A 1.10 1.09 90.0 0 1 1554.13 349.17
  L 1554.13 461.28
  A 1.26 1.25 -90.0 0 1 1552.88 462.54
  L 1551.14 462.54
  A 1.29 1.29 0.0 0 1 1549.85 461.32
  C 1548.31 435.93 1538.69 414.92 1511.81 409.51
  C 1507.02 408.55 1500.38 408.05 1494.39 408.10
  Q 1485.73 408.18 1470.73 408.18
  A 0.42 0.42 0.0 0 0 1470.31 408.60
  Q 1470.24 480.20 1470.31 524.99
  Q 1470.32 529.68 1472.38 536.66
  Q 1475.74 548.10 1487.80 550.44
  C 1502.28 553.25 1516.42 552.69 1534.25 552.53
  Q 1551.30 552.38 1567.12 547.86
  C 1581.22 543.83 1591.74 534.48 1599.95 521.46
  C 1608.42 508.03 1612.32 492.84 1614.91 477.22
  A 0.78 0.78 0.0 0 1 1615.68 476.57
  L 1617.94 476.57
  A 0.50 0.50 0.0 0 1 1618.44 477.07
  L 1618.44 558.63
  A 0.80 0.80 0.0 0 1 1617.64 559.43
  L 1395.06 559.43
  A 0.72 0.72 0.0 0 1 1394.34 558.71
  L 1394.34 555.56
  Z"
/>
<path fill="none" d="
  M 1083.18 373.03
  A 0.49 0.48 -30.4 0 1 1082.64 372.89
  Q 1069.80 357.43 1060.67 341.21
  C 1055.13 331.36 1051.53 321.95 1050.16 310.99
  Q 1048.94 301.23 1052.52 291.47
  Q 1059.33 272.90 1077.69 268.66
  Q 1096.55 264.30 1110.03 277.24
  C 1120.86 287.65 1124.28 306.09 1123.12 321.06
  Q 1121.34 344.15 1105.01 359.49
  Q 1095.27 368.66 1083.18 373.03
  Z"
/>
<path fill="#e2c6a6" d="
  M 1727.99 412.80
  A 0.22 0.22 0.0 0 0 1728.41 412.89
  Q 1737.86 391.27 1757.39 376.83
  Q 1767.91 369.05 1778.88 366.63
  C 1799.33 362.12 1819.14 373.09 1816.51 396.33
  Q 1815.69 403.55 1809.86 409.29
  C 1800.69 418.30 1784.43 416.89 1778.82 404.49
  Q 1778.58 403.96 1777.74 398.77
  C 1776.19 389.14 1764.99 388.17 1757.34 391.92
  Q 1749.29 395.87 1745.35 400.38
  Q 1733.39 414.09 1729.43 431.65
  Q 1727.91 438.36 1728.02 455.45
  Q 1728.19 480.40 1728.01 532.49
  Q 1727.99 537.20 1729.32 542.18
  C 1731.38 549.93 1736.76 552.70 1744.30 553.91
  Q 1749.46 554.74 1755.82 554.84
  A 0.77 0.77 0.0 0 1 1756.58 555.61
  L 1756.58 558.62
  A 0.80 0.79 90.0 0 1 1755.79 559.42
  L 1661.04 559.42
  A 0.72 0.72 0.0 0 1 1660.32 558.70
  L 1660.32 555.70
  A 0.72 0.72 0.0 0 1 1661.05 554.98
  Q 1673.23 555.10 1678.07 552.58
  C 1686.25 548.34 1687.79 540.39 1687.80 531.86
  Q 1687.86 477.54 1687.83 402.26
  C 1687.82 389.84 1682.61 381.88 1669.11 382.04
  A 1.17 1.17 0.0 0 1 1667.93 380.87
  L 1667.93 379.59
  A 1.23 1.22 88.3 0 1 1669.08 378.36
  Q 1672.55 378.16 1678.49 376.73
  Q 1702.14 371.03 1718.58 366.03
  C 1722.03 364.98 1723.98 365.24 1727.04 366.11
  A 1.31 1.31 0.0 0 1 1727.99 367.37
  L 1727.99 412.80
  Z"
/>
<path fill="#e2c6a6" d="
  M 571.44 534.38
  A 0.18 0.18 0.0 0 0 571.11 534.30
  Q 565.08 542.38 556.32 549.37
  C 540.66 561.87 520.56 566.24 500.86 563.38
  C 491.26 561.98 479.30 557.25 472.37 550.26
  C 464.00 541.82 459.87 530.96 460.55 518.99
  C 462.16 490.78 486.68 475.24 510.24 465.79
  Q 515.16 463.82 543.22 453.35
  C 554.03 449.32 562.26 445.44 570.49 439.47
  A 1.96 1.95 72.6 0 0 571.29 437.93
  C 571.54 424.54 572.06 412.14 569.09 399.55
  C 565.45 384.21 555.16 373.95 538.77 372.20
  C 527.33 370.98 514.76 373.83 505.96 381.43
  C 502.19 384.69 499.12 389.75 501.76 394.55
  A 2.24 2.11 -88.3 0 0 502.39 395.26
  C 506.84 398.42 510.57 400.71 512.22 406.41
  Q 516.09 419.78 505.39 427.94
  Q 499.75 432.24 492.58 432.05
  C 482.09 431.78 473.14 425.33 471.67 414.52
  C 469.15 396.03 490.88 380.26 505.40 373.90
  Q 535.87 360.57 569.63 368.32
  C 585.33 371.93 599.37 380.49 606.49 394.30
  C 610.60 402.26 611.22 411.70 611.20 421.01
  Q 611.07 489.13 611.20 532.27
  C 611.22 538.23 614.92 546.98 621.07 549.41
  C 629.39 552.70 638.44 548.68 644.90 542.86
  A 0.81 0.81 0.0 0 1 646.02 542.89
  L 648.50 545.37
  A 0.88 0.87 -45.5 0 1 648.50 546.61
  Q 637.20 558.08 620.24 562.22
  C 603.45 566.33 580.52 563.35 573.97 544.28
  Q 572.27 539.33 571.44 534.38
  Z
  M 570.90 448.13
  Q 570.46 448.72 559.13 453.38
  Q 550.58 456.89 535.52 464.45
  C 521.63 471.42 510.27 481.11 504.57 495.23
  C 499.02 509.00 501.20 526.14 511.80 537.12
  C 521.52 547.20 537.85 549.21 550.65 543.13
  Q 563.67 536.95 569.70 524.18
  Q 571.73 519.89 571.74 516.27
  Q 571.84 484.17 571.78 452.01
  Q 571.78 448.24 571.68 448.12
  A 0.49 0.49 0.0 0 0 570.90 448.13
  Z"
/>
<path fill="#e2c6a6" d="
  M 750.96 413.26
  Q 751.46 413.29 751.60 412.83
  Q 752.71 409.07 754.98 405.21
  Q 763.73 390.29 775.76 380.04
  C 787.47 370.07 804.69 362.68 820.41 366.68
  C 829.63 369.03 836.29 374.30 839.40 383.31
  Q 842.75 393.00 839.08 401.52
  C 834.12 413.04 820.90 418.76 809.34 412.71
  Q 801.50 408.61 800.74 400.62
  Q 800.37 396.85 799.59 395.55
  C 795.04 388.00 784.21 388.96 777.58 392.90
  C 764.12 400.89 756.00 415.39 752.64 430.39
  Q 751.04 437.53 751.09 454.23
  Q 751.26 516.68 751.07 530.00
  C 750.98 535.87 751.96 546.41 757.42 550.19
  C 763.28 554.25 773.29 555.03 780.17 554.88
  A 0.73 0.73 0.0 0 1 780.92 555.61
  L 780.92 558.68
  A 0.79 0.79 0.0 0 1 780.13 559.47
  L 682.86 559.47
  A 0.96 0.95 -90.0 0 1 681.91 558.51
  L 681.91 555.96
  A 1.08 1.08 0.0 0 1 683.04 554.88
  C 692.32 555.34 705.29 553.64 707.76 542.54
  Q 708.99 537.01 708.94 531.75
  Q 708.93 530.33 708.97 407.33
  Q 708.97 394.80 707.39 391.12
  Q 703.38 381.78 690.93 381.74
  A 1.03 1.03 0.0 0 1 690.02 381.19
  Q 689.48 380.17 690.08 378.82
  A 0.91 0.90 -83.7 0 1 690.74 378.29
  Q 716.45 373.51 741.06 366.08
  Q 745.64 364.70 750.24 366.38
  A 0.92 0.91 -79.9 0 1 750.84 367.24
  L 750.84 413.13
  A 0.13 0.13 0.0 0 0 750.96 413.26
  Z"
/>
<path fill="#e2c6a6" d="
  M 1954.19 534.20
  A 0.35 0.35 0.0 0 0 1953.56 534.03
  Q 1945.17 545.28 1932.45 553.22
  C 1915.02 564.10 1892.32 567.60 1872.62 560.98
  Q 1858.63 556.27 1851.06 547.37
  C 1835.48 529.02 1840.05 501.88 1857.43 486.45
  C 1871.60 473.88 1887.96 466.93 1906.32 460.21
  Q 1930.30 451.42 1935.62 449.11
  Q 1945.08 445.00 1953.10 439.13
  A 1.03 1.03 0.0 0 0 1953.51 438.33
  Q 1953.90 424.53 1953.50 413.76
  C 1952.81 395.51 1945.93 376.55 1925.62 372.79
  Q 1904.58 368.90 1888.07 381.38
  C 1884.79 383.86 1880.16 392.25 1885.45 395.76
  Q 1886.48 396.44 1887.40 397.03
  C 1899.19 404.70 1898.43 422.81 1885.64 429.53
  C 1874.96 435.14 1860.47 431.65 1855.32 419.84
  C 1851.11 410.18 1855.24 399.06 1862.14 391.64
  C 1884.72 367.33 1922.33 360.88 1953.41 368.64
  C 1964.70 371.46 1973.75 376.47 1981.85 384.18
  Q 1985.25 387.43 1989.11 393.79
  C 1994.61 402.86 1996.13 412.84 1996.10 424.00
  Q 1996.04 446.74 1995.98 530.25
  Q 1995.98 538.50 1999.56 544.70
  Q 2002.25 549.37 2008.55 550.43
  C 2015.85 551.65 2022.78 547.95 2027.93 542.99
  A 0.72 0.71 -44.4 0 1 2028.92 543.00
  L 2031.42 545.51
  A 0.84 0.84 0.0 0 1 2031.43 546.70
  Q 2016.13 562.35 1993.25 563.95
  C 1980.82 564.82 1967.51 560.92 1960.09 550.96
  Q 1955.28 544.52 1954.19 534.20
  Z
  M 1953.67 448.61
  A 0.44 0.43 77.8 0 0 1953.06 448.21
  Q 1942.68 452.97 1930.03 458.16
  Q 1925.04 460.21 1919.24 463.26
  C 1909.97 468.14 1903.46 471.87 1896.67 478.37
  C 1888.15 486.54 1883.38 497.24 1882.57 509.10
  Q 1882.06 516.54 1884.17 522.47
  Q 1887.02 530.46 1890.34 534.46
  C 1901.02 547.34 1919.80 550.45 1934.58 542.34
  Q 1948.21 534.85 1953.44 520.35
  A 4.14 4.12 54.7 0 0 1953.67 518.99
  L 1953.67 448.61
  Z"
/>
<path fill="none" d="
  M 1140.93 515.87
  Q 1126.70 529.68 1111.33 536.07
  Q 1083.93 547.46 1055.64 539.87
  Q 1048.92 538.07 1040.12 533.29
  C 1023.07 524.02 1010.51 507.11 1005.00 488.74
  C 993.95 451.97 1010.39 413.13 1046.19 397.99
  A 0.63 0.63 0.0 0 1 1046.93 398.17
  C 1052.85 405.52 1058.19 412.58 1064.49 420.51
  Q 1088.23 450.40 1140.98 515.08
  A 0.58 0.58 0.0 0 1 1140.93 515.87
  Z"
/>
<path fill="none" d="
  M 571.68 448.12
  Q 571.78 448.24 571.78 452.01
  Q 571.84 484.17 571.74 516.27
  Q 571.73 519.89 569.70 524.18
  Q 563.67 536.95 550.65 543.13
  C 537.85 549.21 521.52 547.20 511.80 537.12
  C 501.20 526.14 499.02 509.00 504.57 495.23
  C 510.27 481.11 521.63 471.42 535.52 464.45
  Q 550.58 456.89 559.13 453.38
  Q 570.46 448.72 570.90 448.13
  A 0.49 0.49 0.0 0 1 571.68 448.12
  Z"
/>
<path fill="none" d="
  M 1953.67 448.61
  L 1953.67 518.99
  A 4.14 4.12 54.7 0 1 1953.44 520.35
  Q 1948.21 534.85 1934.58 542.34
  C 1919.80 550.45 1901.02 547.34 1890.34 534.46
  Q 1887.02 530.46 1884.17 522.47
  Q 1882.06 516.54 1882.57 509.10
  C 1883.38 497.24 1888.15 486.54 1896.67 478.37
  C 1903.46 471.87 1909.97 468.14 1919.24 463.26
  Q 1925.04 460.21 1930.03 458.16
  Q 1942.68 452.97 1953.06 448.21
  A 0.44 0.43 77.8 0 1 1953.67 448.61
  Z"
/>
</svg>
